{"title":"Fantastic Four(2005)MP-4[DaScubadude]","uid":12349867,"size":1295784214,"categoryP":"video","categoryS":"movies","magnet":"?xt=urn:btih:6c31a0f3cdd726033c259552503622e94f8238ec&amp;dn=Fantastic+Four%282005%29MP-4%5BDaScubadude%5D&amp;tr=udp%3A%2F%2Ftracker.openbittorrent.com%3A80&amp;tr=udp%3A%2F%2Fopen.demonii.com%3A1337&amp;tr=udp%3A%2F%2Ftracker.coppersurfer.tk%3A6969&amp;tr=udp%3A%2F%2Fexodus.desync.com%3A6969","seeders":0,"leechers":0,"uploader":"dascuba","files":1,"time":1441405403,"description":"Fantastic Four (I) (2005)\nPG-13  |  106 min  |  Action, Adventure, Sci-Fi  |  8 July 2005 (USA)\n5.7 Your rating:   -/10   Ratings: 5.7/10 from 249,389 users   Metascore: 40/100 \nReviews: 1,002 user | 274 critic | 35 from Metacritic.com\nA group of astronauts gain superpowers after a cosmic radiation exposure and must use them to oppose the plans of their enemy, Doctor Victor Von Doom.\n\nDirector: Tim Story\nWriters: Mark Frost, Michael France, 2 more credits Â»\nStars: Ioan Gruffudd, Michael Chiklis, Chris Evans \n\nGeneral\nComplete name               :Fantasitic Four(2005)FANTASTIC_FOUR_169_Title1.mp4\nFormat                                   : MPEG-4\nFormat profile                           : Base Media\nCodec ID                                 : isom\nFile size                                : 1.21 GiB\nDuration                                 : 1h 45mn\nOverall bit rate mode                    : Constant\nOverall bit rate                         : 1 633 Kbps\nMovie name                               : FANTASTIC_FOUR_169\nGenre                                    : Science_Fiction\nWriting application                      : Lavf54.6.100\n\nVideo\nID                                       : 1\nFormat                                   : MPEG-4 Visual\nFormat settings, BVOP                    : No\nFormat settings, QPel                    : No\nFormat settings, GMC                     : No warppoints\nFormat settings, Matrix                  : Default (H.263)\nCodec ID                                 : 20\nDuration                                 : 1h 45mn\nBit rate mode                            : Constant\nBit rate                                 : 1 499 Kbps\nWidth                                    : 720 pixels\nHeight                                   : 404 pixels\nDisplay aspect ratio                     : 16:9\nFrame rate mode                          : Constant\nFrame rate                               : 29.970 fps\nColor space                              : YUV\nChroma subsampling                       : 4:2:0\nBit depth                                : 8 bits\nScan type                                : Progressive\nCompression mode                         : Lossy\nBits/(Pixel*Frame)                       : 0.172\nStream size                              : 1.11 GiB (92%)\nWriting library                          : Lavc54.23.100\n\nAudio\nID                                       : 2\nFormat                                   : MPEG Audio\nFormat version                           : Version 1\nFormat profile                           : Layer 3\nCodec ID                                 : 6B\nDuration                                 : 1h 45mn\nBit rate mode                            : Constant\nBit rate                                 : 128 Kbps\nChannel(s)                               : 2 channels\nSampling rate                            : 44.1 KHz\nCompression mode                         : Lossy\nStream size                              : 96.9 MiB (8%)\nWriting library                          : LAME3.99.5","torrent":{"xt":"urn:btih:6c31a0f3cdd726033c259552503622e94f8238ec","amp;dn":"Fantastic+Four%282005%29MP-4%5BDaScubadude%5D","amp;tr":["udp%3A%2F%2Ftracker.openbittorrent.com%3A80","udp%3A%2F%2Fopen.demonii.com%3A1337","udp%3A%2F%2Ftracker.coppersurfer.tk%3A6969","udp%3A%2F%2Fexodus.desync.com%3A6969"],"infoHash":"6c31a0f3cdd726033c259552503622e94f8238ec","infoHashBuffer":{"type":"Buffer","data":[108,49,160,243,205,215,38,3,60,37,149,82,80,54,34,233,79,130,56,236]},"announce":[],"urlList":[]}}